{"title":"Hidalgo 2004 BRRip H264 AAC-Rx(Phoenix-RG)","uid":5792298,"size":2377867660,"categoryP":"video","categoryS":"hd___movies","magnet":"?xt=urn:btih:291098a0d56fcecb57a4f08297c13b427abfbbcc&amp;dn=Hidalgo+2004+BRRip+H264+AAC-Rx%28Phoenix-RG%29&amp;tr=udp%3A%2F%2Ftracker.openbittorrent.com%3A80&amp;tr=udp%3A%2F%2Fopen.demonii.com%3A1337&amp;tr=udp%3A%2F%2Ftracker.coppersurfer.tk%3A6969&amp;tr=udp%3A%2F%2Fexodus.desync.com%3A6969","seeders":4,"leechers":0,"uploader":"rev-x","files":7,"time":1282896645,"description":" Hidalgo 2004 BRRip H264 AAC-Rx(Phoenix-RG).mp4\n      Format : MPEG-4 /AVC\n      File size : 2.21 GiB\n      Duration : 2h 16mn\n      Format profile : &lt;a class=&quot;__cf_email__&quot; href=&quot;/cdn-cgi/l/email-protection&quot; data-cfemail=&quot;d39bbab4bb939fe7fde2&quot;&gt;[email&amp;#160;protected]&lt;/a&gt;&lt;script data-cfhash='f9e31' type=&quot;text/javascript&quot;&gt;\n/* &lt;![CDATA[ */!function(){try{var t=&quot;currentScript&quot;in document?document.currentScript:function(){for(var t=document.getElementsByTagName(&quot;script&quot;),e=t.length;e--;)if(t[e].getAttribute(&quot;data-cfhash&quot;))return t[e]}();if(t&amp;&amp;t.previousSibling){var e,r,n,i,c=t.previousSibling,a=c.getAttribute(&quot;data-cfemail&quot;);if(a){for(e=&quot;&quot;,r=parseInt(a.substr(0,2),16),n=2;a.length-n;n+=2)i=parseInt(a.substr(n,2),16)^r,e+=String.fromCharCode(i);e=document.createTextNode(e),c.parentNode.replaceChild(e,c)}t.parentNode.removeChild(t);}}catch(u){}}()/* ]]&gt; */&lt;/script&gt;\n      Bit rate : 2 000 Kbps\n      Width : 1 280 pixels\n      Height : 528 pixels\n      Display aspect ratio : 2.424\n      Frame rate : 23.976 fps\n      Resolution : 24 bits\n      Colorimetry : 4:2:0\n      Scan type : Progressive\n      Bits/(Pixel*Frame) : 0.123\n      Stream size : 1.90 GiB (86%)\n      \nAUDIO:\n      Format : AAC / LC\n      Format/Info : Advanced Audio Codec\n      Duration : 2h 16mn\n      Bit rate : 321 Kbps\n      Channel(s) : 6 channels\n      Channel positions : Front: L C R, Rear: L R, LFE\n      Sampling rate : 48.0 KHz\n      Resolution : 16 bits\n      Stream size : 313 MiB (14%)\n\nSCREEN:\n &lt;a href=&quot;\nhttp://img832.imageshack.us/img832/4089/vlcsnap2010082708h34m03.jpg&quot; rel=&quot;nofollow&quot; target=&quot;_NEW&quot;&gt;\nhttp://img832.imageshack.us/img832/4089/vlcsnap2010082708h34m03.jpg&lt;/a&gt;\n &lt;a href=&quot;\nhttp://img834.imageshack.us/img834/3640/vlcsnap2010082708h31m27.jpg&quot; rel=&quot;nofollow&quot; target=&quot;_NEW&quot;&gt;\nhttp://img834.imageshack.us/img834/3640/vlcsnap2010082708h31m27.jpg&lt;/a&gt;\n &lt;a href=&quot;\nhttp://img831.imageshack.us/img831/9585/vlcsnap2010082708h34m25.jpg&quot; rel=&quot;nofollow&quot; target=&quot;_NEW&quot;&gt;\nhttp://img831.imageshack.us/img831/9585/vlcsnap2010082708h34m25.jpg&lt;/a&gt;","torrent":{"xt":"urn:btih:291098a0d56fcecb57a4f08297c13b427abfbbcc","amp;dn":"Hidalgo+2004+BRRip+H264+AAC-Rx%28Phoenix-RG%29","amp;tr":["udp%3A%2F%2Ftracker.openbittorrent.com%3A80","udp%3A%2F%2Fopen.demonii.com%3A1337","udp%3A%2F%2Ftracker.coppersurfer.tk%3A6969","udp%3A%2F%2Fexodus.desync.com%3A6969"],"infoHash":"291098a0d56fcecb57a4f08297c13b427abfbbcc","infoHashBuffer":{"type":"Buffer","data":[41,16,152,160,213,111,206,203,87,164,240,130,151,193,59,66,122,191,187,204]},"announce":[],"urlList":[]}}